<svg width="1600" height="5563" viewBox="0 0 1600 5563" fill="none" xmlns="http://www.w3.org/2000/svg">
<path d="M513.797 244.09C559.291 45.1018 774.76 -116.388 903.242 -58.392C975.065 -72.2244 1133.71 -99.8894 1193.7 -99.8894C1268.69 -99.8894 1317.68 -120.388 1342.68 -99.8894C1367.68 -79.3907 1280.69 115.598 1172.7 78.5997C1064.72 41.602 791.258 49.1015 625.781 468.076C493.4 803.256 98.0233 806.722 -83.1175 766.558C-120.446 643.565 -161.906 405.88 -29.1252 439.078C136.851 480.575 468.304 443.078 513.797 244.09Z" fill="#9A9FFF" fill-opacity="0.1"/>
<path d="M854.475 4015.81C986.147 3727.15 1517.23 3305.36 1717 3395.5C1828.68 3374 1592.72 3607.5 1686 3607.5C1802.6 3607.5 2104.42 3449.3 2143.28 3481.16C2182.15 3513.02 1992.4 3992.01 1824.5 3934.5C1656.6 3876.99 1285.89 3712.74 1028.6 4363.96C822.76 4884.93 207.999 4890.32 -73.6526 4827.89C-131.693 4636.72 -196.159 4267.28 10.2987 4318.88C268.371 4383.38 627 4514.5 854.475 4015.81Z" fill="#9A9FFF" fill-opacity="0.05"/>
<path d="M940.306 398.775C1024.27 158.403 1283.79 58.9003 1518.76 81.5151L1646.29 61.8367C1672.74 186.06 1696.68 409.555 1568.67 328.347C1265.59 136.068 1235.89 340.699 923.374 733.016C658.646 1065.34 -65.5211 1167 -109.973 1031.42C-198.95 979.755 -114.324 917.228 136.656 860.909C450.381 790.51 856.343 639.146 940.306 398.775Z" fill="#9A9FFF" fill-opacity="0.1"/>
<path d="M1040 4490.5C1203.5 4110.5 1414.7 4073.39 1649.67 4096L1727.29 4201.84C1753.74 4326.06 1832.92 4501.51 1695.5 4437.5C1344.5 4274 1326.02 4566.18 1013.5 4958.5C748.772 5290.82 -235.027 5579.08 -149 5158.5C-181.527 4917.08 -173.5 5158.5 273 5035.5C582.98 4950.11 939.368 4724.38 1040 4490.5Z" fill="#9A9FFF" fill-opacity="0.05"/>
<path d="M1354.19 2732.12C1449.14 2440.76 1708.58 2296.04 1938.86 2397.7L1902.73 2730.48C1818.81 2680.99 1645.72 2601.25 1622.5 2840.66C1581.59 3262.72 1243.2 3402.49 1005.78 3387.87C768.37 3373.25 589.736 3189.16 292.352 3276.47C14.617 3358.01 -75.0604 3538.4 -165.312 3510.14C-80.1808 3151.12 292.913 2919.28 636.757 3034.98C980.6 3150.68 1259.24 3023.47 1354.19 2732.12Z" fill="#9A9FFF" fill-opacity="0.1"/>
</svg>
