<svg width="1600" height="5563" fill="none" xmlns="http://www.w3.org/2000/svg"><path d="M513.797 244.09C559.291 45.102 774.76-116.388 903.242-58.392c71.823-13.832 230.468-41.497 290.458-41.497 74.99 0 123.98-20.499 148.98 0 25 20.498-61.99 215.487-169.98 178.489-107.98-36.998-381.442-29.498-546.919 389.476C493.4 803.256 98.023 806.722-83.118 766.558c-37.328-122.993-78.788-360.678 53.993-327.48 165.976 41.497 497.429 4 542.922-194.988Z" fill="#9A9FFF" fill-opacity=".1"/><path d="M854.475 4015.81C986.147 3727.15 1517.23 3305.36 1717 3395.5c111.68-21.5-124.28 212-31 212 116.6 0 418.42-158.2 457.28-126.34 38.87 31.86-150.88 510.85-318.78 453.34-167.9-57.51-538.61-221.76-795.9 429.46-205.84 520.97-820.601 526.36-1102.253 463.93-58.04-191.17-122.506-560.61 83.952-509.01C268.37 4383.38 627 4514.5 854.475 4015.81Z" fill="#9A9FFF" fill-opacity=".05"/><path d="M940.306 398.775C1024.27 158.403 1283.79 58.9 1518.76 81.515l127.53-19.678c26.45 124.223 50.39 347.718-77.62 266.51-303.08-192.279-332.78 12.352-645.296 404.669C658.646 1065.34-65.521 1167-109.973 1031.42c-88.977-51.665-4.351-114.192 246.629-170.511 313.725-70.399 719.687-221.763 803.65-462.134Z" fill="#9A9FFF" fill-opacity=".1"/><path d="M1040 4490.5c163.5-380 374.7-417.11 609.67-394.5l77.62 105.84c26.45 124.22 105.63 299.67-31.79 235.66-351-163.5-369.48 128.68-682 521-264.728 332.32-1248.527 620.58-1162.5 200-32.527-241.42-24.5 0 422-123 309.98-85.39 666.368-311.12 767-545Z" fill="#9A9FFF" fill-opacity=".05"/><path d="M1354.19 2732.12c94.95-291.36 354.39-436.08 584.67-334.42l-36.13 332.78c-83.92-49.49-257.01-129.23-280.23 110.18-40.91 422.06-379.3 561.83-616.72 547.21-237.41-14.62-416.044-198.71-713.428-111.4-277.735 81.54-367.412 261.93-457.664 233.67 85.131-359.02 458.225-590.86 802.069-475.16 343.843 115.7 622.483-11.51 717.433-302.86Z" fill="#9A9FFF" fill-opacity=".1"/></svg>